<svg id="_x31__x2C_5" height="512" viewBox="0 0 36 36" width="512" xmlns="http://www.w3.org/2000/svg"><path d="m4.167 8.377c0 6.917-3.583 11.667-3.583 15s1.916 10.333 17.249 10.333 17.583-9.417 17.583-13.083c.001-17.167-31.249-24.5-31.249-12.25z" fill="#efefef"/><path d="m29.875 2h1v2h-1z" fill="#a4afc1"/><path d="m32.125 5h2v1h-2z" fill="#a4afc1"/><path d="m20.75 6.75h4.5c.48 0 .89.34.98.8l3 14.5c.01.07.02.13.02.2 0 .55-.45 1-1 1h-4.5z" fill="#2fdf84"/><path d="m25.25 22.25c0 .55-.45 1-1 1h-16.5c-.55 0-1-.45-1-1 0-.07.01-.13.02-.2l3-14.5c.09-.46.5-.8.98-.8h10.5c.48 0 .89.34.98.8l3 14.5c.01.07.02.13.02.2z" fill="#f3f3f1"/><path d="m28.264 22.164c-.004-.004-.004-.004-.009-.009l-2.442-2.442c-.369-.369-.964-.368-1.333.001s-.369.964-.001 1.333l-.888-.888c-.368-.369-.964-.368-1.333.001s-.369.964-.001 1.333l-.444-.444c-.368-.369-.964-.368-1.333.001s-.369.964-.001 1.333l-2.664-2.664c-.368-.368-.964-.368-1.333.001s-.369.964-.001 1.333l4.542 4.542c-.689-.102-1.839-.141-2.546.565-.667.667-.649 1.129-.445 1.333.559.559.995-.329 3.553.887s4.202 1.108 5.331-.003l.889-.889.004-.004c1.586-1.584 2.04-3.735.455-5.32z" fill="#2fdf84"/><path d="m9 22.25c0-.07.01-.13.02-.2l3-14.5c.09-.46.5-.8.98-.8h-2.25c-.48 0-.89.34-.98.8l-3 14.5c-.01.07-.02.13-.02.2 0 .55.45 1 1 1h2.25c-.55 0-1-.45-1-1z" fill="#d5dbe1"/><path d="m23.838 28.378c-2.558-1.216-2.994-.327-3.553-.887-.204-.204-.222-.666.445-1.333.707-.707 1.857-.667 2.546-.565l-4.542-4.542c-.19-.19-.278-.44-.272-.689l-.645-.645c-.368-.368-.964-.368-1.333.001s-.369.964-.001 1.333l4.542 4.542c-.689-.102-1.839-.141-2.546.565-.667.667-.649 1.129-.445 1.333.559.559.995-.329 3.553.887 1.796.853 3.134 1.043 4.166.703-.575-.141-1.206-.366-1.915-.703z" fill="#00b871"/><path d="m25.813 19.714.97.97-2.533-13.934h-2l2.344 12.889c.369-.275.884-.261 1.219.075z" fill="#00b871"/><path d="m24.736 29.996c-1 0-2.151-.313-3.471-.94-1.371-.651-2.021-.627-2.448-.611-.38.014-.857.032-1.313-.423-.449-.449-.603-1.345.444-2.393.384-.384.846-.608 1.324-.727l-3.32-3.32c-.659-.66-.659-1.734.001-2.394s1.733-.659 2.394-.001l1.475 1.475c.04-.05.083-.098.129-.144.32-.32.745-.496 1.196-.497h.001c.093 0 .185.007.274.022.079-.151.182-.291.306-.414.557-.559 1.411-.646 2.061-.26.049-.065.103-.127.161-.186.659-.658 1.733-.66 2.393-.001l2.442 2.443c1.781 1.782 1.6 4.345-.442 6.387l-.894.894c-.738.727-1.637 1.09-2.713 1.09zm-5.665-3.058c.563 0 1.427.091 2.839.763 2.797 1.328 3.896.715 4.482.14l.885-.885c1.091-1.09 1.86-2.857.456-4.261l-2.45-2.451c-.076-.075-.196-.076-.272.001-.076.076-.077.195-.002.271l.667.667c.146.146.22.338.22.53s-.073.384-.22.53c-.293.293-.768.293-1.061 0l-1.554-1.554c-.076-.076-.196-.076-.272.001-.063.063-.064.206-.002.271l.002.001 1.109 1.111-1.061 1.061-1.109-1.11c-.002-.001-.003-.003-.005-.004l-.439-.439c-.064-.064-.208-.064-.272 0-.064.063-.064.208 0 .271l1.109 1.11c.146.146.22.338.22.53s-.073.384-.22.53c-.294.294-.769.292-1.061 0l-3.773-3.774c-.076-.075-.196-.076-.272.001-.076.076-.077.196-.001.272l4.542 4.542c.229.229.285.579.14.868-.146.288-.458.454-.78.404-.502-.075-1.423-.127-1.905.354-.101.101-.173.187-.224.256.084-.003.18-.007.284-.007z"/><path d="m14.09 24h-6.34c-.965 0-1.75-.785-1.75-1.75 0-.099.01-.185.023-.281l3.012-14.571c.159-.807.881-1.398 1.715-1.398h10.5c.834 0 1.556.591 1.716 1.404l1.818 8.794-1.469.304-1.819-8.8c-.023-.12-.127-.202-.246-.202h-10.5c-.119 0-.223.082-.245.195l-3.001 14.507c-.004.184.11.298.246.298h6.34z"/><path d="m27.575 17.762-2.079-10.06c-.023-.12-.127-.202-.246-.202h-4.5v-1.5h4.5c.834 0 1.556.591 1.716 1.404l2.078 10.054z"/><path d="m16 15c-2.206 0-4-1.794-4-4v-2.25h1.5v2.25c0 1.378 1.121 2.5 2.5 2.5s2.5-1.122 2.5-2.5v-2.25h1.5v2.25c0 2.206-1.794 4-4 4z"/></svg>